HIERARCHY
ROOT Pelvis
{
	OFFSET 0.000000 0.941512 0.000000
	CHANNELS 6 Xposition Yposition Zposition Zrotation Yrotation Xrotation 
	JOINT Pelvis_L_Hip
	{
		OFFSET 0.000000 0.000000 0.000000
		CHANNELS 3 Zrotation Yrotation Xrotation
		JOINT L_Hip
		{
			OFFSET 0.062321 -0.080322 -0.016990
			CHANNELS 3 Zrotation Yrotation Xrotation
			JOINT L_Knee
			{
				OFFSET 0.093051 -0.381305 -0.029784
				CHANNELS 3 Zrotation Yrotation Xrotation
				JOINT L_Ankle
				{
					OFFSET -0.010371 -0.431000 -0.033614
					CHANNELS 3 Zrotation Yrotation Xrotation
					End Site #name: L_Foot
					{
						OFFSET 0.069299 -0.038670 0.119418
					}
				}
			}
		}
	}
	JOINT Pelvis_R_Hip
	{
		OFFSET 0.000000 0.000000 0.000000
		CHANNELS 3 Zrotation Yrotation Xrotation
		JOINT R_Hip
		{
			OFFSET -0.055334 -0.094904 -0.002373
			CHANNELS 3 Zrotation Yrotation Xrotation
			JOINT R_Knee
			{
				OFFSET -0.064207 -0.384370 -0.019592
				CHANNELS 3 Zrotation Yrotation Xrotation
				JOINT R_Ankle
				{
					OFFSET 0.025418 -0.419734 -0.065953
					CHANNELS 3 Zrotation Yrotation Xrotation
					End Site #name: R_Foot
					{
						OFFSET -0.057233 -0.039888 0.132134
					}
				}
			}
		}
	}
	JOINT Pelvis_Spine1
	{
		OFFSET 0.000000 0.000000 0.000000
		CHANNELS 3 Zrotation Yrotation Xrotation
		JOINT Spine1
		{
			OFFSET -0.005562 0.124093 -0.043360
			CHANNELS 3 Zrotation Yrotation Xrotation
			JOINT Spine2
			{
				OFFSET 0.012244 0.139499 0.029894
				CHANNELS 3 Zrotation Yrotation Xrotation
				JOINT Spine3
				{
					OFFSET -0.002556 0.056561 0.009225
					CHANNELS 3 Zrotation Yrotation Xrotation
					JOINT Spine3_Neck
					{
						OFFSET 0.000000 0.000000 0.000000
						CHANNELS 3 Zrotation Yrotation Xrotation
						JOINT Neck
						{
							OFFSET -0.005205 0.217920 -0.024551
							CHANNELS 3 Zrotation Yrotation Xrotation
							End Site #name: Head
							{
								OFFSET 0.002365 0.091850 0.046637
							}
						}
					}
					JOINT Spine3_L_Collar
					{
						OFFSET 0.000000 0.000000 0.000000
						CHANNELS 3 Zrotation Yrotation Xrotation
						JOINT L_Collar
						{
							OFFSET 0.072225 0.116603 -0.009480
							CHANNELS 3 Zrotation Yrotation Xrotation
							JOINT L_Shoulder
							{
								OFFSET 0.115937 -0.058643 -0.021018
								CHANNELS 3 Zrotation Yrotation Xrotation
								JOINT L_Elbow
								{
									OFFSET 0.021994 -0.254722 -0.024492
									CHANNELS 3 Zrotation Yrotation Xrotation
									End Site #name: L_Wrist
									{
										OFFSET 0.048810 -0.240214 0.103329
									}
								}
							}
						}
					}
					JOINT Spine3_R_Collar
					{
						OFFSET 0.000000 0.000000 0.000000
						CHANNELS 3 Zrotation Yrotation Xrotation
						JOINT R_Collar
						{
							OFFSET -0.073372 0.120704 -0.024611
							CHANNELS 3 Zrotation Yrotation Xrotation
							JOINT R_Shoulder
							{
								OFFSET -0.108089 -0.054969 -0.020504
								CHANNELS 3 Zrotation Yrotation Xrotation
								JOINT R_Elbow
								{
									OFFSET -0.033684 -0.260739 0.009889
									CHANNELS 3 Zrotation Yrotation Xrotation
									End Site #name: R_Wrist
									{
										OFFSET -0.067980 -0.232763 0.118463
									}
								}
							}
						}
					}
				}
			}
		}
	}
}
MOTION
Frames: 15
Frame Time: 0.041667
0.000000 0.984247 0.000000 -0.508077 -5.580001 -12.980718 0.000000 0.000000 0.000000 5.909320 3.172208 16.875597 1.221607 1.000381 -27.218730 99.338434 52.113998 135.159398 0.000000 0.000000 0.000000 -5.683074 -1.307846 14.304869 6.060754 -0.717716 -31.619409 -87.679690 -46.940851 129.790933 0.000000 0.000000 0.000000 7.654945 4.089946 -34.536467 0.030206 0.844195 16.366702 0.011032 3.195443 13.171326 0.000000 0.000000 0.000000 0.982582 0.999763 -48.783076 0.000000 0.000000 0.000000 24.969688 -11.124332 -4.115816 -7.959509 0.410824 -3.352805 -10.130146 9.810839 50.587824 0.000000 0.000000 0.000000 -29.004384 3.750104 3.281771 14.790875 0.544245 -1.060692 6.553306 -11.049377 44.565840 
-0.000413 0.940196 0.031202 -0.924542 -5.841038 -10.713737 0.000000 0.000000 0.000000 9.920427 3.655448 24.138680 -4.906497 -0.065803 -40.512363 107.555918 52.425169 133.750870 0.000000 0.000000 0.000000 -10.184570 -0.859218 20.337531 15.296309 1.853407 -44.073659 -110.167655 -52.095198 126.361930 0.000000 0.000000 0.000000 6.181902 5.898110 -46.158434 1.385387 0.335703 14.516120 0.490022 2.533668 20.990352 0.000000 0.000000 0.000000 2.038569 0.972979 -50.389740 0.000000 0.000000 0.000000 25.345140 -11.603242 -4.593917 -4.804633 0.528911 -0.666910 -15.690662 10.384263 50.853445 0.000000 0.000000 0.000000 -29.103926 0.815414 5.972358 12.006042 0.803518 -3.154026 8.249883 -12.363478 48.653136 
-0.000158 0.894736 0.048157 -2.723153 -6.295190 -6.632176 0.000000 0.000000 0.000000 14.256806 2.805475 26.607533 -9.561536 -1.691575 -49.411518 122.729756 56.699058 126.406205 0.000000 0.000000 0.000000 -11.219575 -0.567980 20.951377 21.509997 4.692382 -51.432960 -134.157876 -61.846593 121.256183 0.000000 0.000000 0.000000 8.945491 8.755828 -56.699939 -2.142335 1.765072 19.423428 2.257112 2.431694 19.837189 0.000000 0.000000 0.000000 -2.566002 1.188526 -51.637590 0.000000 0.000000 0.000000 24.925313 -8.615141 -2.013142 -2.006164 -0.044389 -2.942730 -14.448580 11.396803 54.205012 0.000000 0.000000 0.000000 -31.066364 -1.382546 8.309783 12.814164 0.701217 -2.492598 9.106663 -11.982732 47.619100 
0.000047 0.850506 0.067430 -4.250047 -5.565727 -3.762735 0.000000 0.000000 0.000000 17.612427 2.237579 31.475235 -12.229550 -3.467929 -58.746407 82.399699 65.028395 91.131517 0.000000 0.000000 0.000000 -13.529216 -0.157203 26.392976 28.796074 9.311884 -61.574180 -102.854491 -69.061467 93.282223 0.000000 0.000000 0.000000 10.117467 11.642430 -68.235560 -5.057967 3.063674 22.396766 2.903361 1.660702 23.585610 0.000000 0.000000 0.000000 -5.000113 1.177110 -53.717751 0.000000 0.000000 0.000000 25.976096 -7.470934 -0.851379 -0.321531 -0.248123 -3.447785 -15.299520 11.669678 54.429128 0.000000 0.000000 0.000000 -30.945065 -2.399017 9.030375 11.669621 0.390655 -1.561656 11.523580 -11.677454 46.758571 
-0.004183 0.777373 0.081125 -4.272427 -4.466911 0.078371 0.000000 0.000000 0.000000 20.093663 1.445717 34.342582 -14.923290 -6.278827 -72.248684 107.025171 70.167948 91.504413 0.000000 0.000000 0.000000 -16.394023 0.665717 30.557728 34.239785 15.419106 -74.879607 -102.004060 -78.825263 71.406201 0.000000 0.000000 0.000000 6.469161 11.312450 -75.676221 -4.635912 2.097369 14.671322 4.154864 0.647221 33.223896 0.000000 0.000000 0.000000 -7.161430 0.886648 -60.405427 0.000000 0.000000 0.000000 22.023917 -4.195312 1.317677 6.154857 -0.984586 -5.546571 -16.023484 11.913229 53.793251 0.000000 0.000000 0.000000 -25.595487 -5.908627 10.278288 4.332695 0.374486 -2.623582 12.039502 -11.912048 46.727550 
-0.004858 0.718394 0.141765 -4.867325 -6.971864 -15.640075 0.000000 0.000000 0.000000 25.977931 1.037956 71.910500 -14.382010 -10.188249 -86.343230 102.976431 62.133548 110.843620 0.000000 0.000000 0.000000 -20.643005 3.800212 58.261006 39.450963 19.859743 -77.697088 -118.972713 -67.895863 106.054571 0.000000 0.000000 0.000000 9.246498 11.128247 -66.276346 -7.090999 1.137998 -0.209601 7.351423 -0.676294 53.445047 0.000000 0.000000 0.000000 -9.504601 0.315585 -67.095816 0.000000 0.000000 0.000000 19.568956 -7.604053 -1.437810 7.572587 -1.262607 1.312752 -18.933751 11.199886 49.293859 0.000000 0.000000 0.000000 -25.630508 -3.601007 8.428678 3.492993 0.169835 -2.259671 11.986594 -13.735002 50.087787 
0.004553 0.683284 0.163012 -4.664925 -5.586818 -15.797484 0.000000 0.000000 0.000000 24.059820 2.129179 73.240580 -10.481491 -7.481381 -89.838921 68.197894 60.039351 101.068488 0.000000 0.000000 0.000000 -22.589665 5.077964 63.261826 38.706769 19.719180 -79.536454 -154.761424 -64.751465 126.125940 0.000000 0.000000 0.000000 9.339903 13.705220 -78.787652 -5.632109 2.993528 20.409224 3.798147 0.887654 40.657086 0.000000 0.000000 0.000000 -9.548505 0.840107 -58.397057 0.000000 0.000000 0.000000 22.634504 -8.321817 -1.627428 4.589687 -0.631005 1.496620 -13.703429 11.070401 51.408128 0.000000 0.000000 0.000000 -29.407977 -5.699460 10.928760 9.528337 -0.281563 0.317021 7.951479 -13.984608 52.415909 
-0.000805 0.578069 0.143408 -1.514865 -10.053096 -9.892804 0.000000 0.000000 0.000000 28.069198 1.545337 77.187755 -19.399792 -17.522222 -99.380720 50.722223 61.920341 67.257883 0.000000 0.000000 0.000000 -32.725318 13.907377 61.014993 56.046779 35.219084 -86.252355 -38.323727 -70.767698 8.177495 0.000000 0.000000 0.000000 9.143767 13.399705 -70.868325 -10.616223 1.880668 0.866132 10.485695 0.812336 51.446820 0.000000 0.000000 0.000000 -15.931735 -1.261781 -74.418052 0.000000 0.000000 0.000000 19.634399 -4.574663 0.851774 4.077927 -0.824290 -3.495703 -9.760596 10.795665 50.730506 0.000000 0.000000 0.000000 -22.241018 -4.755999 8.319400 -0.092618 0.635477 -5.776433 9.301804 -16.814248 58.259179 
0.003012 0.524800 0.168063 -2.174724 -9.775584 -10.798216 0.000000 0.000000 0.000000 29.838659 -0.246179 86.558272 -17.357312 -17.313800 -103.150589 54.627318 70.821792 28.099129 0.000000 0.000000 0.000000 -33.352480 17.298473 72.332160 57.590328 37.890585 -90.048304 -78.227770 -74.523079 57.740896 0.000000 0.000000 0.000000 12.392328 16.208844 -75.342058 -14.217798 3.758939 7.763947 5.880858 4.009556 46.285076 0.000000 0.000000 0.000000 -3.561664 0.485090 -68.217227 0.000000 0.000000 0.000000 27.056498 -3.107613 3.469697 0.163751 -0.250239 -2.961686 -6.356146 10.773027 52.303672 0.000000 0.000000 0.000000 -26.971665 -1.962778 6.945680 9.267290 0.017276 -1.607714 8.646505 -15.657613 56.772516 
0.013364 0.492353 0.176798 -5.772251 -6.198561 -6.331892 0.000000 0.000000 0.000000 28.926666 -1.134279 85.947628 -12.764000 -13.883145 -113.625355 38.666977 76.683014 -22.864809 0.000000 0.000000 0.000000 -31.496285 15.866443 80.882848 39.557173 30.648704 -105.698423 -37.745455 -69.961465 8.328920 0.000000 0.000000 0.000000 11.207875 16.706389 -84.722716 -11.750694 2.680565 4.851123 5.494720 2.257854 48.327855 0.000000 0.000000 0.000000 -6.322446 0.878986 -56.044602 0.000000 0.000000 0.000000 28.701445 -7.622965 -0.140045 -4.304583 1.062053 2.593094 -2.778887 10.788377 53.633323 0.000000 0.000000 0.000000 -36.509416 -2.977542 9.816997 16.513384 -1.046884 1.620104 5.082120 -15.922555 59.277039 
0.021203 0.447605 0.182170 -6.264808 -4.335801 -5.370979 0.000000 0.000000 0.000000 29.677224 -3.115365 91.731338 -13.334189 -16.251054 -120.142217 38.793849 76.750143 -22.695894 0.000000 0.000000 0.000000 -33.025524 16.247111 80.800880 36.813563 28.967871 -107.506025 -30.246257 -72.996493 -11.681169 0.000000 0.000000 0.000000 11.521967 16.270734 -85.535629 -13.590567 2.364041 0.713891 9.386029 -0.529926 51.865465 0.000000 0.000000 0.000000 -16.799096 1.313817 -55.087134 0.000000 0.000000 0.000000 26.925845 -7.742015 -0.539104 -5.491530 1.108736 0.845090 -3.018254 12.939615 61.794947 0.000000 0.000000 0.000000 -40.217790 -4.441067 12.135188 15.515403 -0.474406 -0.746436 4.692316 -19.587171 70.839355 
0.025521 0.428640 0.177026 -3.621922 -3.999565 -1.415073 0.000000 0.000000 0.000000 27.625854 -0.150851 95.243526 -7.258717 -8.037788 -125.691245 99.744661 75.922637 68.535459 0.000000 0.000000 0.000000 -33.513761 17.033613 81.944144 31.770158 27.964227 -117.242241 -103.623413 -77.600345 75.606438 0.000000 0.000000 0.000000 7.993390 16.132802 -93.442387 -12.520045 3.229837 7.257962 9.559464 0.417930 48.692075 0.000000 0.000000 0.000000 -18.719556 2.475844 -48.529720 0.000000 0.000000 0.000000 26.719866 -9.747552 -2.163015 -4.836540 1.386292 4.209570 -4.199321 12.976175 61.449978 0.000000 0.000000 0.000000 -44.757429 -4.687929 13.425833 21.674766 -0.118612 -1.985551 -0.991011 -16.821881 66.281299 
0.029686 0.429341 0.186892 -3.816349 -6.189044 -2.503137 0.000000 0.000000 0.000000 25.192932 4.706362 99.924770 3.098756 8.006023 -125.466944 111.055163 73.095785 86.264554 0.000000 0.000000 0.000000 -34.621707 18.826933 80.191962 32.929294 27.709046 -114.467947 -107.182384 -77.713913 78.515871 0.000000 0.000000 0.000000 11.466453 19.355491 -92.309588 -17.359232 5.024286 10.298121 15.695352 0.596338 40.009479 0.000000 0.000000 0.000000 -27.922351 7.070706 -33.170204 0.000000 0.000000 0.000000 18.969692 -9.647689 -2.720771 3.783847 -0.124857 8.253582 -9.347066 25.530235 96.186983 0.000000 0.000000 0.000000 -51.883425 -3.453281 14.302381 24.939166 -1.030352 1.996060 -5.820927 -16.427206 69.235539 
0.028240 0.437938 0.186984 -4.090334 -4.121138 -2.758799 0.000000 0.000000 0.000000 27.049740 0.384014 92.590872 -6.310481 -6.232621 -123.609209 75.091015 71.626222 57.509390 0.000000 0.000000 0.000000 -33.214266 16.403291 80.505259 33.812270 28.271408 -112.884028 -87.421848 -80.190823 53.698026 0.000000 0.000000 0.000000 9.184533 16.947558 -93.321371 -16.183540 5.089674 12.233040 16.258517 -0.925621 40.532306 0.000000 0.000000 0.000000 -36.320200 7.142530 -38.362151 0.000000 0.000000 0.000000 25.351118 -11.040957 -3.446103 -8.642964 2.326797 5.577958 5.640127 11.733338 65.295288 0.000000 0.000000 0.000000 -49.802860 -5.537666 16.379246 22.948683 -0.842016 1.314829 -5.276256 -16.066275 66.373304 
0.024925 0.452758 0.183078 -4.892490 -3.474764 -4.349547 0.000000 0.000000 0.000000 28.794254 -2.357959 90.840682 -9.980664 -11.485226 -121.659753 70.910422 74.006350 42.619658 0.000000 0.000000 0.000000 -32.209535 15.544025 82.599890 34.049511 28.047199 -111.532671 -63.205560 -78.583383 29.471665 0.000000 0.000000 0.000000 10.508276 15.777584 -87.146661 -14.435707 2.989396 3.408273 12.317558 -0.691250 50.992933 0.000000 0.000000 0.000000 -30.020997 1.531099 -54.953309 0.000000 0.000000 0.000000 25.767851 -7.804393 -0.559738 -7.771292 1.306395 -0.705698 7.683807 11.509719 64.084118 0.000000 0.000000 0.000000 -41.414928 -8.403639 16.046333 17.327706 -0.186792 -1.714570 -4.205181 -16.352962 64.845525 
